<mxfile host="app.diagrams.net" modified="2022-10-25T20:06:44.375Z" agent="5.0 (X11; Linux x86_64) AppleWebKit/537.36 (KHTML, like Gecko) Chrome/104.0.5112.101 Safari/537.36" etag="rx7NKo2oyPg41qE5yLeS" version="20.5.1" type="github">
  <diagram id="gr5IK-zQyAgA7wmlpy5a" name="PÃ¡gina-1">
    <mxGraphModel dx="2844" dy="1594" grid="1" gridSize="10" guides="1" tooltips="1" connect="1" arrows="1" fold="1" page="1" pageScale="1" pageWidth="1600" pageHeight="900" background="none" math="0" shadow="1">
      <root>
        <mxCell id="0" />
        <mxCell id="1" style="" parent="0" />
        <mxCell id="S43TfDFbF08kJnj1kmTM-10" value="" style="rounded=0;whiteSpace=wrap;html=1;fontSize=40;fillColor=#FFFFFF;gradientColor=#FF6666;gradientDirection=south;" vertex="1" parent="1">
          <mxGeometry width="1600" height="900" as="geometry" />
        </mxCell>
        <mxCell id="S43TfDFbF08kJnj1kmTM-15" value="" style="rounded=0;whiteSpace=wrap;html=1;fontSize=40;gradientDirection=south;fillColor=#fff2cc;strokeColor=#d6b656;gradientColor=#ffd966;" vertex="1" parent="1">
          <mxGeometry x="260" y="20" width="1100" height="100" as="geometry" />
        </mxCell>
        <mxCell id="S43TfDFbF08kJnj1kmTM-17" value="" style="shape=image;verticalLabelPosition=bottom;labelBackgroundColor=default;verticalAlign=top;aspect=fixed;imageAspect=0;image=data:image/png,iVBORw0KGgoAAAANSUhEUgAAAhEAAAA+CAYAAACV+0nYAAAABGdBTUEAALGPC/xhBQAAACBjSFJNAAB6JgAAgIQAAPoAAACA6AAAdTAAAOpgAAA6mAAAF3CculE8AAAABmJLR0QA/wD/AP+gvaeTAAAACW9GRnMAAAAaAAAAGgDISm3oAAAACXZwQWcAAAKHAAAAigBAlPiBAAA4T0lEQVR42u2dd7hVxdXGfxQLVqLR2JKgJjGYRNFo7IqxxZpoEntLUWwZndj1i7HGGkeXBewSRRAbdhQLdlFUMEY0FhQ1KhZALCDt+2Ot4z33cPY+e/bZ+96L3vd5eB69Z5+9Z+bMnlmz1rveBZ3oRCS8cwt757q1dzs60YlOdKIT7Yvu7d2ATsw78M4tCGwKjAkin7V3ezrRiU50Ig+8c4sAnwWROe3dlnkd3zgjwjvXA5gviHzS3m2ZV+Cd6wLsASwPnBdEprd3m75psN9gLeCZIDK7vdvTia8HzKO4BjqvvhEbqnduLWB8EPm0vdvydUDX9m5AW8I71xtYpWgDwjs3ny3yXzt4534JjECt9jM7DYi2h3duKeBM4JVOA6ITRcE7tzxwOvDiN8GAsDDsfsDrQeSj9m5PR4Z3boGs135jPBHeub2BN4LIwwXf98dAzyDyZHv3seB+/Qw4A1gc2D2ITGjvNn0T4Z3bFDgL2DGITG7v9nTi6wHv3LbA34Dtg8jn7d2eNujvasDuwElB5Iv2bk/Bffs28FFRhqB3bjPgv8BbWa7/2hsR3rlvoae4y4LI0wXf+w/AUkHkrPbuZ4F9+i5wMrAnOm5/DyKz2rtd3zSYm/kE4BhgsyDydnu3qRPzPrxz86PehwOB9YPIB+3dpjbocz+gN3D412kt8851BbYAnizCgDDO2xnAsCCSyYCAr7kR4Z3bEH1h/hxEXi7wvosClwCzg8ie7d3Pgvr0Y+BwYG/gI+BXQeT+9m7XNxHeuRWA64CNgGOCyKPt3aZOtMAW7x7zGrnYO7cyMATl1hwQRMa0d5tK7u/iwGXAC0HksPZuT8F9WxbYF7igCG6HhfqvB84OIiNjvvu1NCLsJT8W+D2wbRB5p8B7r4W+iO+gVuA8CeNw9Aa2BbYHNgS6AMOBfYLIxHZoU1dgRWBV4MfAt9BwymLAZ8CH9u8DYFQQebW9x7GEMdgeuBpYAv0tCvFy2e+9AvAT9Hf/NjquiwPTaBnbj4Bng8i/23ssOiK8c8sBawaRO9q7LZHt3hW4FFgUGBpELmnn9nQD1kENmu8Ay9i/7wCzgU/t3xvAS/bv8SAyLeP9f4Gu0wODyMkl9mN5YGvgR1V9WAZYEpiCrlUTgdeAe4FHg8iXTT5zS+A3gC+Co+ad+yNwAXBWELkm9vttTgb0zn0f2A7oQ8uALwssDUwHpgKfAC8DzwNjgXuCyNSM918WuBb4Puqum5hw3b7AVRlueSFwBPAlcBjq7hlv9/64rccv4xhsAqxb9acuwILohrEEukH/BFi46poZwPHAOW1JsvLOrQL8Cn0RNwZ6RHz9dXSjvQu4uyjSoXcuoItb2ZgBnBhEHjY381nAofbZZ0DvGLdinX58j5ax/SVqNGTF/4B70PEd1uzCVwS8c39D50gezEYX9SnAu+i6MjbGEDUewZpB5JSc7b8cWKUNhmoacGwQGe2dWwg4H/izfTYJ+FEQ+bAN2lHb/8WBbdCDy6/QjTYGn6Hv+g3ATfXedzOW/4p6oAcEEVdCP9YBdrB+rJ6jDw8AZwSRxyOf2w04CTW0DqgNzXjnhgC7NLjNp8DBQeRf3rnFUI/6rsA1QWTvPOPRJkaEkVp2RY2Hn+W4xefALcDlaa4W79w26CluDrrJv5Zy7U3ATinPnAT8MYgMM+LKQPQF+ABYL+3e7Qnv3JLAOGCpiK+NB3YNIk+1URsXQCf7ocCaBd32RXThvK3JtnUFPkYNrjIxHtgtiIzyzv0QPTVVj8UxQeTMHO3vhnqWHKrpUQQmoMZOFqO7NHjnJgDfLfi2bwJDgcFB5LmE586PHh56BpE/5mx7D2AyMH/Jw/QSsEsQed4791PURb1q1ecHtLUXwsK/h6KHsaLeq+dRjsN9Vc+pXqcHAXsVeSDyzm2M8sU2KeiWN6HveUND1kKcg1EP7BF1Pp8feB/omXKbsejceLnKo74yMBLYKu9BoVQjwuLsJ6FhhaKedQPggsh7Vc+ZD7U8/4oaHH2DyOiUdi2CupiSTr2PYRkJ3rm+6IRcDpgJ/DKIPFLmuDUD79xVaKwsK4YC+weRKW3Qtm7AIcBxqOepDAwADs37Qnjn1gCeLXkovhpz79weQH/UzVzBy8BqsX2we52GeuHKwC3AH9pirtTp20qoS7hM3AEcH0Ser3ruD9DFdjqwaRPzalP0BFomrgT+EkQ+987tD5xH6zVuNLBOW6UJG1HvEJQcHOt1yIKRwA5BZKp5XwehWjZjrZ+FpKN759YFTgE2L6EPM9DfLNGw885thx6OBwaRwxOu2Radv0m4COW8VXvU50cPMz8PIpPydqAUnQjv3HK2mb0A7EyxxsrvgfvMsq+QhR63AeoC7JtmQBj2pr4BMRs1RvoC73jnTgTuRw0IgKM6uAGxKdkNiC+AfkFklzYyIH4OjEIXtrIMCIADgEHmUUhrT5Jsd153eRZ8DuwXRHYBZnjnrkRDb4vWXPe3mM3KO/cD79wIWsJ4ZWFH4M7Ku5fSnjIk0fuW2K8KtgOOrrTfO7cn8BzKIdm9yZBOmfPqE9Sr9SdgPu/cUNRNXfs7HdeGBsTK6Pt+NsUbELNp2dQ/886dgK7Ty6PG3u4FcQW62r0foxwDAmA+YIB37vg6z5/PO3c2cBtqIByRcp9+CX+fBOwURA5B15k7gHNRA2Ia8LtmDAgowYiwjew5dDMrYzG5C/U0fOGd282eVYlf3xREbmzQvvlRy7gW76EuneNQnsaDwN+rxujuIBJK6E8hsBDBgIyX/wdYO4hcaie8stv2Z3RB+XkbDcfv0N8uqT2/Qrkh9VCUq7IW/0bH/HIL7z0D/KHOdW+hJ/5MsBPIWMpb5GqxASnzzE6EK5Tw3L4l96ti4O0B9PDOXQ1cAywCnBpE3mzy/mXNq6eBNYLIEIvVP4cetGoxLoiMKKkNreCd2wGd36uVcPuJaObYCSg34D7U213Zay4NIi8W0IelUU7QSbSNKOOpNm6V5/cCHkUNh9vRDMO6oRnznm5f56PHgT5B5Bbbl8eioZ4Kjg4iTXtdCxsc71wX79xRqLphGSfNL1Fvw3bA5965K9A0uMopbjLwlwz3OZa546oj0MG+z37IsWh6XQWfoXnVHRn/hzKEG+EyYG3gRe+cRxeh0uCdO9ae2dYFu47yzq1Y05ZFvXP9gYn18uONlLVR1gdEYADwiyDyonfuANSg+nHCtRcFkZlZbuqd2wsYBixU3jDWxd7eufVr2jKfd+4MNPWx2Q23HsrahEE9phUDbw10A9zHPpuGhptyww4u6zZzjzqYA5yDGnXjvXNHAI+g2U31cH5JY1fb1xPROVkGp+ghdJ0eYQeBMbTm/VQ8yc32YU3UGGsrwxw03HCPPX9He/4v0BDULklrgnnNpObPc2wcNkE96iehxtZyVdc8jSYNNI1CjAjryGBUnKiMzeI1YIMgci5KzHwGqCU4HRdE3m3QzvVQlbYKZqJGxVbAZO/cecCtzH1KPbOkhbEQeOdWBY5qcNkUdDLuj2ZlVNxaS3jnvlNSu44E/tFOw7IgcFBVW9ZEX5xbU6zvVdHUx6IwGfhtEDkQWNA7dyO6IS2YcP1s4IosN/bO7YySyNorTdtXtWUl1OX7WhAZXviD1Bj8Xkn9uJQWA+8vwBO0NsYnFaAUujZxWUeNMBHYJogciRLp7kLDBvMlXD8N9aqUCjsw/J3iuXZzUK7PZsCH3rkzrc+15PE3Gu0BGfrQG93Ml2vmPhGYgoYUDrHnC3Az+rt+ioap0tJaj0fT8yt4nxaP+rKoR/0E5t7rDy4qtFWUJ+ISGqeW5MVg1F032jt3IPVPcbPsukRYOssgWoycN4GNg8gZwA/QxePQOl+diubQdkjY6fkS0lnfT6GpaUPNrfU8rd1aK5fQrjXQF7+9cAlmMHrnDkV/38sbbHJFxq0rrsSbjZg1Bvhtg++MzZJ6Z0ztAbRDirZhGLC/tWVX9NT0VBC5rKTn9S3hnlOAnYNIP2Ah79xt6ImutmbAspaX3wyKnFf3AasHkeFW12Ysmi6ZhifKlrY2rYEyDgwfAFsHkf9DPciPoAemenN/iZgb1+lDL9QrXeRBIg2VUNRNRuB9nNbe9NTMjTqH4hHo3BhhHvUx1PesjihSvblpI8Kswj81cYvP0Re63t//FER2B7p7524GLqb+Ke7FDKeF/rS4+m5GF/gnzCX8LFrJrh6u6OA1C/ajtSVajYrLc0PgTe/cyegitGzNdYUaEcbKHkTyySgJ/0bDMuugJKke6KlwO8zVlwGVzeEAYGHv3O0omfOGIHJOg+8WsdjPRhfTTYAJFuJ7hGyEx4caXWBG40BUiCsGr6Muzg3RU30PYCXUCzco4z2mo0zyHYHp3rnLUOP9OZTxXRb6Fny/UejifYOl7Y2lfky5gn82WWCviHk1E81q2gr4wN7lEcz9LtdDw3nVDGzDujTHV59FT9LroDyahWkdXn0EXafv8c79Fp1n66Tcr6eJgeXpQ4VfsXzkV/9HS+igFy3v1bYopyEJ56He9fFmiD9L6xTv8WljWnUo7k7ruTHZO3c+9T3qFfwzzxgloSlXqHfO0diNXov/2gDeC7xdYdHWCGX8G3W9j/PObYByH9LcmT/0znVPiRsdhRZfmYbmFl/snVvEyFP7kI4bmhvi8mATP0lL4ANgbzuxfNfGMMnYKNoTsRvKaM+K6aj6Wr3Y8yv2707v3EFo7DAJo1D33/ialK/nUWOrEWIW+3uCSOIJ0H6bf6Eu1x3QUstFqID2RYWjsmI2cCpaeKjWfTne/t3rnbseJXQmhSP/i76TY6w42/Xob/w/4PdZeRxN9DkrRgaRr+Lklv79HdTdvwtqVB8PzPbO/R09yTUKwf4UPdFFF++zUO8GEV+5PojsmnK/yrvcDd00nmvPipSm2Pgv4sLY7wFHBJFBNfdaCD00zEFTEP+GZptcRFVosgGWR+dkLK4ibh380tr3zzr1OCrv1V3GEzq66rNJaAbhbd65Ht65CzGvXg0uCyIzEsa8O7ovrYh61HezA/GP0PeyT0q7J6GZLIUhtxFhcfgYSd7Z6IZ3QsKCU1H+6o/qPXzpnTsOFfdoNEEXRC3ZN+q0c2d0Qr6MLoJjvXN90MFuREScCHTk6pznU19c5AFgzyDyrnfuN2icPc3V94OC2xUjyDMDLTD1WKMLzfjbm7lPI3NQ6/o4dHM4AY0DVubNwY0q95k7MeYU80jKvTZHY9DXoi7JIov+xIod7RZEhja6KIjcbpyNemHJa4CDgsinVszoPFo8gkeVWcTJXMwxfIhWG30QmWFehDVQHsFwU068jTijcR9yGBH23EUjrk+bVzug7/IFwCkdpHz3AOJIlK+hWjv1qgL3R9eDbSphR/N0ZzUgQI2IKFe9lQffOuIrHwFbZsxsqC658AQq6jfBNJSGkiy+mCZTMADYEjX6/xREJplH/WI0mygNdxZt8OcyIsy6voq544dJmI1aX9ck3M+haZW/DSI329+OJC6m3osaI8K8GANRS/ngIPKZd+4Q9DSSpe23t1VedSy8c1sz94I/CzgRdafP5527ABV7aYTCPBFmDW8Y8ZX+WQyIKrxCayOi2uOyPOp9qGby35qxgFUs+3+uDcVOCCcBB6MpWTdG3jMVtvk14lVU47YsBkQVXqn5/8/Q92agd66nGRnVzx+DnorLRN/I61v9LqaWeDAqFFUh3X2Ccp1ikJepX8S8qkii74UeDu7O2ZZCYToa20V85U1go3rkR0sDXwkNX1RvvKMimxXFizAjNca9P4WMBoTtkwfQElY+LojMtIPQxbQuO1CLSQn3PB6tsHxIELkowqNewa2R49kQeTkRh6PpJ1lxQooBsQlaTKRPxYAwxBbNahVzNinha1FlwH3NgPg9asVnNX5KjSXmhbn9Lq7581uofsapwA/Rly+LAQHFhjO2irz+zsjrq0lPD9JCMtsOjW3XLtr/ynjfmFPpdJSs+hWsTsVDqJT6ekUbEFVtjGH5NzO2Y1Elu4FG4HqOuQ2Ya9rgNNw34toZVHkOTTulDzWZW9bmg9DFPSu+Z79xLGLm1SQ03fQr2Dr2hN1nrQ5kQHybuLTRGegpvJ4BsR7qQdi0TrHEJyKbFiucdzlxnqJ+EdoKDpU72DaIHAUsYBv+QNINCKjjffPO7Y4aEOsEkUpY93yyGxCQz5uWimhPhDHDT4r4yrMkxO2Ntb4BatnVulheaXTjGnylUGYT/DQ01eW/VdfExJKhgxoRaIinV9X/34rW+fjYO7cPyhtoNEmrsZR3brEg8kkBbftJ5PWx+eS9UI/LScBpQWS2d24LVLGtdsGZBWRddGMW+6eqFfEsZHQlGkb6VdZicTlQ9thWiMcXA38NItMtNfYodHN7oeb6tuAL9Y24dnRNee6ZSQqz5lJ+KPL+q6F1RDIhh+7Io9VGmZ30+6M1Fg5sFJJrYxxG3Kn/H0FkrtCwpVR2DyJJe8oM4pBZfdEy1TaLuPcNQeT6jPfeACVX9gki7xiPaCjJ+jC1WK7mfhujmhhr1czxmD1tXBnVmfOEMw4nOc+9FjPRzW2uGIy5kWYHkaS0oJgCUqBFkyqn9K3Q4iu10qcxrsU3EuJ27Qrjcxxm/zsdJShdaEJK1wJ7VF1+P9lfkpXR02az6Bl5/SneubtqXoykvm+Kxvw2rd4cTIkvtxqfnTB7RXzlRvveAqib8gD0tHt2AeOXhp6R1x/pnbs2S+68yRSvRVVIEcBOXTuW3K+kNn2fOBnvWj5EIy7KKOKMiNg16Wdkz6KZgxoLeOcWRoWAdkfrwGRVom0TWO2hGJ7Cu9Thz9n7814QGVdg8yZHXHt8xLVfAkdmHJ8+qLjYVkFklnEuzifOi9it6n7fBxYLIvvVPCd23SrlUBxlRHitEJmF5V7BDUFkbJ37dAHeDyJvpHw3ZnDAjAigSy3r1565NHEZAx3OC2H1ICrqj9Vs+Z+jRYKqCZLjaBFoyYKijIhYEuEqwGPeuQPqnVSq+r4AsD5q2RfNRs/qhfgElUYeatyPoagbdssg8mDBbaqH2LFdCh3bQ4LIXUkX2fu4Exq+6Eiian0jr4911caWWY/VD8g6rz4C9gkid3rnVkdJ34uiOjaxnIC2QD/iUoxPrqdTYYe8RjUuPiI926AWL2W5yCTCY7wQV2Z5N7xzywJdg8g/7WB3KVrBuhl8GETqFdeK5du0vxGBxnhi3OR15WLNZdfINfc89WtcJOF1u3fSiTY2V7vDGRGoW3ktjCiKFp85DA0X1YpN/RVVL8uKongR/83xndWBx71z/wIuCCLP1LlmqSBSlnhVlpfxGdRoe62KCf0GqnY4vqR21SLP2K6IpsfeBpwbROrN62WAUHKaZh70jbj2NdLz8uthWuT1sa71LPPqUTSD5m0T0zsXTXH/ZRDJk6pYKixl1kd8ZQrZeUlzwebk2LzfT8FxkddnLZ/+oWXFrYlmNd2O6j+ciKZ6Z8VXYYeUPa1p0m4RyGxE2OQ5OOLe/2mm4qUx6mMXhTR0CKstL6zQ0jFoJsI1xvsYgsbdajHcyIYxctZFpXnmHbcuKEFoH+/cGNTjcn3F6xBE3i6offXQyMC8AC2EM793biBaBXYCsGEbl8V+GHV75xE+2gHYwTv3Kkomu7ZCYmtWKrhE9M143RCU8BbL6YkV7JoceX3avKrWQljUO3cT6g0ahxKkS1WYbAJbEifIdHVH64t3binqr5tJeCmIjMlyoaUUH4yGnPeseJK8c7GVMl/OcE3MnvZKWUZpjCeiL3ElXctO/YpFzIC/HUReb+8GV2CknCPRIkGveOf6oqmM9XQNZqJeCGgJ8WRBUZ6Ih9AXYJUm7tEHJYf28c71CyJzvHPdCtZbAMA7twzJeiGTUE7PsDraIt9D1eHyPPZDYOnYzAYT0RqBLuR58QN089rQO/f7IDKtrLFtBt65n9I4pPk5yhm4POdjYsMTMaS9VUguRDgR5Wzda5kJg2nhfvRGPYx5+vNqEPlhzrHIil9HXl96zY56MB2jVxPKt+9AnDjW4CwXeed6ogTrhdEMrWoJ+1hSdKrX0dLZYw5+pR2KY1I8Y8lVsellpcG4HD+N+EqH8ULYy/BrlCz6ulVku59kYaT+FaKSKZ5lPZ0VYkTYxhjj7qyHqcAeViysp3duGFp1dE/LvS4SSafFJ1Fp5GF2sniSbFVSs+DhJlIjjyTerV6NGSg5egegi3duACrPfYjxTjoKGsWRqytvrm1cglj8LPL6mBLTSYeWB1EjeYR37mjUuxRDHk1DKe7qCow7s33EV95JCE2W2cauplDcM8GAgPi9bEiG566DhjyfR2t9fFj1WRfi+HhvB5FPG1zTYTzrmYwIG4QYC/SdeoTKdsTGxLmAO4QRYTrwi5n2w9IkV2SrYBJzp99mJSGuUNQmYrnseUsPP4sWC7vO0qTGoHPvR+ip5j/eud2NZFoEao2IijDMxsAn3rlbUKZ8kRts7vkVRJ4nXmq+gteA9a0abm9U66IfapBeALzqnTvIxI3aDVZ7Zd+USy5FdWrGeecOR1Ue8xBCfx5x7afAqxHX186r2WhcfHP77+GoR6jIKqxlr1vroPyZrLit5Pa0gpEaK+UUHk+4ZlHihMPG1cgE1N6vi3fur6h65IFB5MQ6AoXfJ45LWHQoA0qcG1kn8NrESQJfWVaDc6LDDHhW2IY+NYg86Z37NTqmjfKyT6qTufARLfn/aehq12ViN2fpArAY8IeI75yH6szPTJE8XwUN5Tjv3K4NMnyyoHpuVLPks9RsyYum5lcQOc9cp3+P+Npg4IAg8olVXLwAWKjmmhXQMJLzzu3SjgeBA6kfd5+CiscNtbj2Tahc8ZjYInlWgyKGMzQ20ntUbUS8i3rWHjRNk2sin50VZa9bMeqUt9IghdI7N5L4tbkaz6Nk55e8c1uhBM6LgkhaKH0r4g4EI1PavyQqHLUkKgCVlO2zWmS//pPhmphxG5/StqaR9TSXNRXmUzTWd0JZDc6JmAF/L83ybCtY+tOXVl9+GI0NiJeZW8USsnsioEDlyiAyJ4j8EXWdN2L9fwRsH0S89fMeND01LXSxDvCcxZRzwTu3BC2xykdRN/PdZsA8RDkGxGSUfd8UgsiJqI5AI32Nz1EJ7t2BOd6569D6CwulfGcVYJSJaLUpbGE+ts5HT6HhpUo5+7G01DsYmeNRMUWxIILk7Z1bES1bDXoy7gM84p07DZ3bZRgQE9ogPTcLF2c64ILIb4JIIofEvE3rNtGWi9E14FXv3OmoqNxDQeTkBt+LFRwcmdD+DdGU+NfQVNy0TTrWUEotA2CE+RjOWanGZVYjIouUccUNfW2ZDU5DPRe3ndhiLMF290JYu3+ExuH/kvErhydUfWsXI6ICc52vQXJhoYdQ6eo7vHNbouGLrO7GnmgFyjUzXl+LiprgP1Di8Ex00W9kwDSDR4qqxxJEBgOrokZmPfwbVbi7wrREnkUrrGbBAsAN3rltShqHJFxGa1Gn6nL2E4wTVFvOPs87u2nEtVNpEYJaysR/0rAxLeWZf4WK8z1k/99MSfE0lF3ue1XUI52GV1BC4QVmDKZhXfKFCCcBOwWRg1Fj7GE0a2082YrT9Y18Xm0tli7euWOBO4Ajg8ihSdU2qxCjRzGHlCJshg7lWW9oRJgsaaNGC7Ae8Jp3LsZ9XRhMFrQeG3qjLP2sQrsbESZ3+wzZRVZGBJEkImuMEVF0NU8AgsgLQWRj9ORYEWWajfI3NgPet9PEcOJPaYsAQ01FLxa9UZnq460dY4l74fOg0PkVRCYEkR1RIa5htNSDGIBqWIzzzh0KPE7879sduMaY4KXDijBVk94+QCs6HonOi3qcoCyLbu1zupGdXDca9YA8bR6Q3TOc+FdCVVVPR+sCjUF/nzJR9rr1pwafX4seIp/zzu2PhiLTEGPEVfA4KjZ3i3nJnkP3HVBZ7VQyonduMeIIjq8Hkfeqvr80ukbtjXKLGkpgm1cqhvT7dIaU63nLiCBd3vQjYIcgcigaFxpBXP5t0/DOLeCdOwuV0H6vziV9I2/ZbkaEd25h79xVaMw066Y4i5aUznpoV09ENYLI8CDyS/REs4m55Feg5TSR95S2Mi1S4DE4B3jAO3cGujgsneMesSiFQR9EnjBjoje68R4ILGwiU+cxtxhZVixBXK2cXLBS7OdV/am6uNoOqIFXrw7FCzkUTDelsYT1HFT4aX3gDfOAHIJySRrhFOBp79yFwM3E61HkQWmZGaYRtFfCx58BfwgiewHdvHM3oMJMjTJZ+kY0YTbqLdwEPXAISmSsjOvHKE+qEWIy9EDXhMoY/BKdg1NR4zxrpk5M1V2sX40QM3ZvlS2Gl0qstNPd3gkfP4Ja5W9bWeqB6IuZlzmeCRYPmmzFgVZBCWOnp5R7jrHaPoiYHEX3K7ZASwWXBJEXUj7vMEaEZfksEkRGV/15A/JXk62G8879IzJUsAI6f7LEZh9GQx3NImsFwGhYEbWXaWF3r43q9ecVqKpgH+/ckWkx7ibb3R3dBBamqrga0N07dx5waMrXR+Z45C4NPv8A2DeI3GUEzEGoDPWGGefXyqimSJYT6L00bwDMDCKxBQtjsA/1ja5qYuO66LvUyz5LnOfGh1gn47PfQ0Wb7reKptej4dFqXBlEsqiPZjUiKkbLiea1+hvK0/m/HPVxfhd5faoRYYTiDlW+oVF2xqEow74as4FTUXdVV+/cOehJuLJIlZIXbCS41VF3z/SqmuynBJEbEr6zGHG666XmWaf0rR96Csta2KyCKTRm6McYEb28cwvUKVxWRB97AwvUKr8Zk/o679waKCt/d+LSoSpYCt00M9Ua8M79FlVu7Jnx/hcmzbP2hhWz+zY1tU+CyHBguJ3yD0AzZWIqL1bQHSXVZapgmAMXoSmbb6MHk0dswxiCSganIWqRtFP1TimXPIhmUrxrHpCr0OJLa2csEldZl7LO4XOsgFyHhKVEnlrno/7ouj/dO3ckuulW7ydph7H1yMaHuAdV6J1oZbAHUL9sd1ZZ7SxE6Ymo0TLCUuwHoXPzN7Fl2K3i9S8ivvKiHQLS0OHkChKNCBvAWpb0/9AXbKRV/RuC1nKoRqFKj7aY/BaV0b7dO7eId+4atK76jUHkzJSvb0gcQa5NQxneucVRItnvc95iceCDnOp29bAAKkL01WZp86AHGh+MEkiyBfs3KM+gf5p0bBB5DtjfO3cMEEj2gKWhNw2MCDsFnYsaLFkxh3wn3tJgJOIt0Nj+4ISaGAAEkVeBI7xzJ6DG/2HEE0djTj8x/fg7sD+qKfAHK2dfKYGdJaQXa/j/lvqG1CxUx+EfwHzeufPRWkGzgS0aya6b1/Zikt3+9fAlDZj4HQDH0ZqnNBnN9rnJOAL/Ym7i/fQGcvAb0LpuyXy0no8z0PTQc4Ae3rnLSeZkfMDcJeqT0Ijs+TBax+R/ljJ6Deol3SytOGAK9iVuw8+ivNqh+BCQ7ok4ndbW9J2oi+/DFKtwFnqayA3v3D9Qd9W3UN2C92hxma2JGi4/RGNTjTIXOtyAV/VzbevLSm31zIy40sJE3dA0ov71aqBYaKI6zr4YqiWyHKoEuCkaw74JOCjLKQ4giHyMus9vQ8M7MaGOVBlj84ZcT7xS4QtB5IPCRjgDaoS/FqZlbH+Mju0mqMG0d9a2WQ2DI0xA617S0zxrESsRnaWP+6EHlcOCyPn2twGoAFYWvBjzu1jYpB7hbwLqAXnMsqKG0OIyPzWIPNDgvmug8ypWcnpUR6srUdOvXrTmGj2JbrJveOc2RzfZeuJTqb+Jied95d2ww9QEdA0ZD+waRJ4y6fPr0QykJDwUcbhJ8sJV1zHpYiTvo1F5+o3ylCr3zvVAjdCs+BAVUWuEmD3t3ZLDXEDCAu2d+wUtFvWXqNtqe+AL79wVtMQIazG5mUqA5nU4Gk2LWge4ERXxeMk754AnaHlRL0ogUlYjZsA/poD8/Qx9rCicPYYK6txHnBJe2VgEJYatjy7uScz3TdHTROXfRJSFfhdaVXRDVMFtHzS2HZWGGURuQklpMUhckC1raDTxBgS0ZJS0CbxzK9F6bD9C5+Y9qBLotqiRvw2qqhnF/A8ij1FfUyQNhW523rnt0XVl/SoD4tuoVyIrYo3+Q5h7o78FZfw/ZtVZn6HFgHiYBlkG3rlDaL0uxaBN51UM7JBwCRpinQOchR4K3vbOnYrOxST1yliO01qoATEUzYR5yjJ1niLdgIA4D2G9+jAfokTk41Aj/SFaSN7n5DEgDAfTmLxbjfMaHbQspB+zfrXJobiersJCwNXoIL6KvuTBGj+a9FzcZvPfj7Q2VecCVxjm59Ny8p1Fg0XQ3IsxsraPNFHPIBNM3/92dAwPAZYMIlvQmpXe3phBiyE32XQ26iHNgzIG+LlVG10HjdU3Wgzq4Z3I6+cSfPHOLeqdG4QqfsacvKvR1ot92tiORwl+Z6Mb15PEC+hAAWObF965zdBDyS+CSDUBLzbeOzLimaujp80KpgGHBJGdgBneuatR13wlhPIReuqelXC/JaymywXkl0TvsEYEWrV2S/RwsHUQOZqWTfZ40g2FnlkfYiGRC1El0l1QQbTBaJi3R4ZbxGyUteTLR1EDcrgZtWNonYobWxW20qcViFOT/QTlBTXCRnQgPoR3rpt3brl64YwL0PjndahM7lTv3EFoHLnRy5K7voB5P/ZBT+i7B5EJpv0wCGXRV+OODDKeGxCnSz+yyTFN69v8wD9Rz4MEkVqW/55lPTsS49GFc5SR8XYKImclXJskpX0Bagx+aYSr09CY5/s52rNY5PVjqv/HvB/Xo9r1w9G4+zuoAZpV+2A2bZ/2mzS2NwD7BZEpRuC7CN30Yr0K0OTY5oXJPn/biqvVIjb8mIkPYbyeG2hZn15CQ6TP16nOWkG/pNLJplZ4HZoSfBsqPPQBaqhmTeechnowOhws1Hoa8ABKMnzXO7cjqnSapX8Leed6NZKkN9LmOcDvgkhF6vkWshvFH5JNIrqCSlXjOcDZqDHUxTv3T+qnya+R9cZVfeqChvpjdGvOyCjb3jeyOSNj2x/RzxXQzBPpWvPBbmj1vD8FkT3MgLgYXayyGAiLWUpUbIOWRl/ys9CF5G3v3N/QSbxCna/0z3DbDsGHMH7BY8ATQWSnWgPCjKdm5F+LQsWVOMqIbUNIt45rmc4fowxmhxI+70Z/z/ns86jKk965hYmrGPhctWFpAkvXoCTNZYLI1kGkfxC5Dfgi4r5jykhttJhpEmrH9gt0U9sZmGXE4oG0LFSxY9sF2DniKxMpYMPzzq2G6vgnlVaOeWdfzhDOxNQlH6Yl3HAVquL5vIUi6lVnHWjhtNp7dTVJ9IvRNNSlg8ivg8hlaK2ImFDu4yVlQWU5vad9f3H0vTkZJZRWhI8uI07vYocGz1nUrulXMSDMC75RhntXEMOHAC2vXZHYPxqVJn+MZJ2dPOvymcRpJT2NrpNZEPN+TAwiRdVBagXz2lwIDAgis7tXffAzVFhqrZo4UOyJZUdUwTJrgxZDT69/CCIPVKXV9E34ysggck+GW8cM+BRUSKRQeOf2QEMVOwSRpEX4lKKfG4kvgEODyGXeucW9c0PQPPo9G8ToPq7670dR79FbKQWGNifOMnbEkfkGwle1Fw4BxgGr1bqjzYKOUW4s3OVs7vxPSc4kqR7bF9FT8ws1xOJqbI6GILNiV1pqhmTBdc1wnazPCwAvJZVn9s59iwLjvWYo7Y+GMHqiROx+QWSwhSIGUb8y8YvUIcRZhcgDUc7E6nU2r58QFwMvY15tg2bQjcn5/R6ogfTnOro7z6LZQFlxuHfuynoqkpa19e0gUisQtR4th44sGBnZxQfRg9Jb3rnfodkQi6dcv5p3brcUo7e6T11QYuaREe2Zhhb8m9XoQjPuYpQvCz8Um0f9TDTUvX5Fm6O7ffgjNHd6izqiHbHEkpO9c8OzFLEygZLfobHJD7xz26KLYdLm8SWa797ovgvRWOe9GoXVM7DnL4wZRujm+kTCdbuTrahNWXgB3aBeNO7CYNSVPoHGmgBvoq7+09H4XxfLrElSnvTeuXtSiJqVMam8jCdG9GMmqjXRHVgqiKQpLMZ6qApb7KuyA5YLIvumXFqRVb4CLWb0uXlWzqK+8uRu3rlbs+hYmCRxFtXFagxstu8ZTt0bE0fIG5nQv15oyvRetBglo1HG/2tVoYh6HtN3UBn0T2ruOR+waIPCgu05rxZA3fNzTD04zz26o2HVv1iGVC1GE2dEfA+tvbJzEJla/YHVmmilomhequMj7g+RG2UQecUUji9EiY9ZcKF37r9BJFH/yAzMS4mrcgpwfARxs13LN1h4uxIaXqfaO9vFLJxVgshTCV9eD9Usj8Hn6AngRvT0Mcfu1Q3dpCrGw8Oou3k+dDPypBNHTjKp5EYd3gzNesiK98lPHJsDnBtEhtizV7PB/jFwYtKGZievl8gutfw+6vrKgzWZu5T7Jeh4T0Ot51NpOQWcZxU1E+Gd2wTobkpy30cNkEYVNWeiKZ93ohvlBLRM8uJo2GpLdPGPJWFK1sXTO3cZ8OeIez9DXPijGm+gGS4f2eY2GP0teqXp41uxo9WCyBDzrFxNtgXqbvSde8PG9m2UTLo8usntRZz4DcBtQeTXkd+JhnfuXHQ+ZsUY1JsDurgubf2sdufPQdeXY1Ay9rFoGKKeRsYUNJ0vV4aWyT3HqBOOIjIMVYWX0IJ7n3jnfox6p1YGvhtbEr2q/UsHkYkpn2+HksJj8S5qtN5VXVre5vWP0DTyHdHQZQxp8CP0wJA5nGHZf0OJEyAEPSxdad/9Lxre+x7q0dwF9ezFeFBAf7M9sh5evXNno2TXrHgFndN58AnqnX7Bnr0HSiFYAHU0tOIidQc+STIgDE+iE2FZsmMh9MR1MjDTOzcFTRWq6E68ip4MnjELZwiNMynuILvrP/ZU8B3ylef9AM3THw7gnTsAXbQWRAWA0k7EZxNXq+GgIBKb8ljxyrxR9acpqLvyRpMQH8bc3pCGseaKuJG5BS8jGyO7O/rSNZIdjsEbqCBOVvSNvH9Mhk81hqIetineuZ3Rk8riwJBGBXZMev1FM9QGkZ0EujUt5bGLwBTiRLmaQew726fB59XS1cuiBaKSCHvvAts2YUB0ydH+rLLPtbgKNUw/s7TlC9B1dUBeAwIgzYAw3I2WvY6Vxl8WVT5+xsbqe+ic3jBvWw1RfIgGipeN0BU9eMQcPtJwF7pvxHi/Y+dXnpRj0LTa/YLI67Z3XEBLRua+tQYEQNdGP4R9noXImITuqFJYxYC4Dq329oz9sM/SeKGuuCMbxo4MsQOeBw/QUiCop3fuRhunBa1PiamwlnWSpWxtBQ/nMSAMf6YlVvskmtJ0o3EXxpIznOKd6+Gd648SYnsWN6xRmI0aRJmErLxWoyylUmkVvqAlXW2Gd+5S1DNVib0OyNDObqbk+ADZDYgycFhShkKRMG9onwJvWSnedZfXuj5jSTYgxqHlq5/LfPe5sSpxfIg8mIqGRv+IFroajJ6OK+vqJWU+3Nbef+b46n3ob3Gv18qbY2jegICMfAhbpy4jWduorfEwmo2S2QtlJNQonZ0cqGSsbGgGRK2kw7lBpG5YM2uM5XziajDUQ6Xa2x4owzxNtKoao9FTQtaNIqa4Sx7MAv4PYy4br+M5Wqq1TUMNnroFYYyccgnZXXezyVehshLLPYIWRbaKWMzpqFhMkvdlxQb3XRW1WBvyU0rELKwwT8R3+pbcphdQYvJlFtYaDexX9flrafLU8BXx8wGUE1JEYbK8OCqIXN1Gz4qN9yZhFsqn2Rz40Gt13ztJ3uBvBDYIjUt7N0LfksenUo58sGVzPYe60Ct4Jk1SvkBchYbJsmAm6iHcCtWbuYDWlTebwXS0YnQqbJ16muI8CM3iXjQzJDY8Glu+IRYTUcGto4LIDPOoP0WL1P0YNCRYF5leXCMa7Zfl2gSMRcWHrq5aXLOcxK8HNs7gaqvGujShV9EAE9AS1qehoihHodVMe1Vdc3YDqdFjiavUeVUTp6R+KBFvqyByLMo7eJTGZbcTT+umJPc08WV1i8QM1FBryJquQZkeqkuwEsGmqzKKuetNpFYBtYJPY1CSYXvC56hW2AyK+F0q7+ap6Pv4GMr1qTfPJ6Hx6N8XlL5b1ryag57+1wdet/XmUeYWIyuiumxD2MFoB1q4KEmo/Bano271UWjGVBF4CVMxTrvIO7cvuk5VspCmo5k396DegLx8gTyYjZLPt64l7WZEmevW/bR41Bc3bk/Fo17BX9I8J5nFmILILca+j4k/g+aTHmGVN6s5A2n4HDghiORxn5U14Leg+hmTUgrPfISmwNSFZcEcS3ZMRb0e0TDp5E3RCfJ+TVy+EVauc7/F7fsVfYFX0Qk4DvVoHELbuAufRz1aeUpq9y2hPZNpKUi0hHfuOrToWD2MrPdHY9efSUvJ6/+h4lgvovyig8nH2YnFG2g8NIaUXASafWer381d0HlaLzV9BhoCOKkRL6WN218PX/GtjLt0DcnZESNLeH5dBJGxFoYeRv1DaPVvEVvRNA3TUI/4KWleaVMq7o9mmnxiz78FeLTaO2xKvOeiGXRlYiIahorxmNaijPk1EzVszggis/3cpdwrGFYn3bcVYtiwAJgI1MkZLv0YnUzD7Ae7gvQSvBXcgsZis7rNatv3ALp5FoVpKBP6Yrv/ZihJq55u/KlB5G8pbXuQuI3smAZVSpOe0xM9vdyNeiLOIe4kMBvoUcnpNxfqEJQkdTNKpGxFbDLC1OXEpYHF4BPrxxkx8cSq9i2Lbs5F4glU4fNN79xGaHguTWxt2VqBpKqCT6uhrvfLUSb7rKprlkQJTrsVPqqKaagn5fisYcOiYPHeSeRz105DDygXGQnsPOp7TKejXKxTgsj4iPtnaX9v0ste58H9wF4WLt0KPbAkkbBnAt+qp8dQJkxw6FJa1sHp6Dp5Uc1G3iymou/HaY3CTublHmrfuQQltzeqR7EfzUmXJ+FzVKzvrCDyYd6bmFzAJOKzP9LwJmrYPG6k4COYu5R7BRtarZ1ERBsR1rEt0B8pKXb+COoufMtSRAej+aVJmIkaD+c3anCDds2PngybUm2rQrU8bjc0PexYksNAvZImujGpr4x49nigdx5VO+/cwsbe/iEaEoqWb0VTr15BJ9hxqEfp3EbuX+/cPujJOUanIw2vo+JlV9bmm0eOyW7oRlIEZqMck7+jLufjgRNI3wjHBZFWqatW8Ol8a9c/GpEYbeH2qCGa692twXvoSW1AaOMqpVV92hplq8ei+t2sV+1xDroOXQvc0EzmQoP2H0g+2fF6+Op0iM6l09D3L+23fiKIRBVgK7DvS6Dv5lrobzE2RRAtBnNQ78pVwE0hQ6VT71w/9MR+TqyX0ju3FuohL4Lw+QVKnj4ziOSR+q9t2xYUG666GT3cT07xqFfwUhDp3eiGMbUlvkIQGWGklb1QdbdKfHw2OvFPQjkDx6BpmfWeMwslb9yNxv2bKiFu+AXFGRBXobGgz0zKezBajyMJz6cYEAuj/ISYap1H5ZXFtTbvhS5u1RrubzN3EZok9EbjsW+hxkzDtE979kBgoM2PvVGv0M/I/rt8iqaDDbd/YwsqjFaUS/Bd9JR4v5EgB5GNw/AVodJOaheip5+1g8hrWR4cRG4Hbjddjr1Rr08fsoeRpqH8pHvQsX0qIuOpLOT5XarfzT3QkN9naBr4aDQL6aky5MoLan89vIl6tZ7wzq2MrjdZDPG2ruvyFUyUak/vXPcgMtNrpeWzqS+I1ggTUA7DKNToeyPLl0zxeBfg2SCSK0MliIwGNjKX/hFoddyYfWQyutHfBdzZjOehDoqaX9OAvwaR/jZuaR71Cm7LcuMiTjMVEY/NgReDyEPeuWXQGN7mdsmXKHP9ZVSs49/AA230kmdpvwB/sf+dihYeK+rU2tZ9qWxQ+6DkoWEoC/2JIJIpw8Y7tzmwB3o6broevXlxeqOE0p4oL2NR1AX6KTrmb6H1EIowJguFd+4xWsJD+5i66q9Rz9JU1G15WxB5OcO91kC9CWKLV7Nt64Ke+n4CLIFyARZD4/+f2r//oe/em0Uqs7YlvHPD0d+gXw5CbYeD/W7/Rn+3G1EuyuQqPYP30Hl1R1Yjsx37siT6LlTXy/gU9SLOQXk9c1C3fOXfZNQgfwZ4Oo8nzDvXFVghb+g75b7zo96VDdE1awk0q6QHynF4DxX/ew/laD3WrCx8we3vihYmqxD4x6FE9OfLeF4hRkRNB7ZEDYgeqDrh7cCIZlzRZcM7NwbVJX8GHewYj0GHgW+pSNgDPRFcHpNOZNK3fwLeCyK3tnd/OgK8VjR8GD3tnksLx+TX9rdBWU/zdmruBlxTkHflGwHv3Abo2O/e0TfUiD5thq6Nfw0iA8xbeSHq1ToWPY13+DliXKDr0Myvcah7/NYIOedOFAzTw3kTXWuuRL12DUNCeZErnJHQ8O5o6GIbND48qK3JPjnbvS9KajsXODapQFBHh3fuYDRkcia6ScVWdlwGtb6vKXPCzUuwcMUZqBzyaJMYvgwNBayS1UAzifP1gbsT6hJ0IgHGd9gAJXjllYnuUDCV3uPQlOAXzDt1MSrc1m9eWIPstHu89eM2oH8QGdne7eoEoGHoz9C5NKTshxViRFhdgBNRd+9x84IFbe3+ISpOs10QyUPuancYuek0NFOgTx53tYVAZgWRO9q7Px0F3rml0PSv3wSRqWZsro6qzWUmTFllxAWCyJ3t3ad5Dd65FYFFgkjWUskdHmaY7oyuOV+Ypsj3UUG9ecLAtErLF6L8mhWz8qU6UT6M2L4SqgrdJl67psMZ5u79LurCam+SVky7F0GLTp3VFtK+JfVhHfSEe0VOEZNO1IGRtXoHkVGmj3EYcF8zmUOdiIOddBeaF7yZEX1aAljJvFpLorogw3JqnrRXHzZCyxRcXVbGSyfywTu3OqqcfEpbeu2aMiIsN3vmvOB+q2l3VzTt8bl5kWhm7V8f+LCRclsn4uGdWzCITLN0tT5oaC5XpkwnOlFB1bxaFyXDDu5IhLwM7V8W+DIrQbsTbQfbi1fOW0SuGRROrOxEuTBxnmWKyJroRH0Yc74v8G6nkdaJomBZSpsC478uBNFOdKLTiJiHYAYEHTnTZV6HjXEv4D/zopeqEx0TFhb7Ljqv5gnOWCc60YmvEbxzXe2E3ImS4J3rbm7BTnSiMHjn5uucV534uuL/AbzU4GnXylyyAAAAAElFTkSuQmCC;" vertex="1" parent="1">
          <mxGeometry x="375" y="20.37" width="865" height="101.39" as="geometry" />
        </mxCell>
        <mxCell id="S43TfDFbF08kJnj1kmTM-19" value="" style="rounded=0;whiteSpace=wrap;html=1;fontSize=40;fillColor=#FFFF00;gradientColor=none;gradientDirection=south;strokeColor=#d6b656;" vertex="1" parent="1">
          <mxGeometry x="110" y="270" width="90" height="140" as="geometry" />
        </mxCell>
        <mxCell id="S43TfDFbF08kJnj1kmTM-20" value="" style="rounded=0;whiteSpace=wrap;html=1;fontSize=40;fillColor=#FF0000;gradientColor=none;gradientDirection=south;strokeColor=#b85450;" vertex="1" parent="1">
          <mxGeometry x="290" y="270" width="90" height="140" as="geometry" />
        </mxCell>
        <mxCell id="S43TfDFbF08kJnj1kmTM-21" value="" style="rounded=0;whiteSpace=wrap;html=1;fontSize=40;fillColor=#FFFF00;gradientColor=none;gradientDirection=south;" vertex="1" parent="1">
          <mxGeometry x="670" y="270" width="220" height="140" as="geometry" />
        </mxCell>
      </root>
    </mxGraphModel>
  </diagram>
</mxfile>
